Coordinates
version=1
nRows=29
nColumns=24
inDegrees=yes

Units are S.I. units (second, meters, Newtons, ...)
Angles are in degrees.

endheader
time	pelvis_tilt	pelvis_list	pelvis_rotation	pelvis_tx	pelvis_ty	pelvis_tz	hip_flexion_r	hip_adduction_r	hip_rotation_r	knee_angle_r	ankle_angle_r	subtalar_angle_r	mtp_angle_r	hip_flexion_l	hip_adduction_l	hip_rotation_l	knee_angle_l	ankle_angle_l	subtalar_angle_l	mtp_angle_l	lumbar_extension	lumbar_bending	lumbar_rotation
      0.65000000	      2.04964192	      8.70642283	     -1.80842240	     -0.76545792	      1.05113368	      0.32200431	     22.62997962	     -4.82497095	    -11.91352610	      0.65679866	      9.36520051	      0.68201399	     -0.04694397	    -21.22766960	     13.07104523	     -2.10439243	     -2.29455798	      5.03533540	      4.06148826	      0.04715661	      3.76218803	     -6.55753312	     -2.19424644
      0.65416667	      2.12370777	      8.61648941	     -1.76423413	     -0.75951021	      1.05109211	      0.32205319	     22.43409584	     -4.73840125	    -11.76809025	      0.30415153	      9.61442278	      0.59102852	     -0.07740151	    -21.48871948	     12.94585957	     -1.94064495	     -2.57784208	      4.77528516	      3.77098410	      0.00387817	      3.73858622	     -6.38770541	     -2.38927252
      0.65833333	      2.11898677	      8.58175303	     -1.69662304	     -0.75362112	      1.05095161	      0.32216059	     22.33969930	     -4.70551706	    -11.64245603	     -0.07166147	      9.59235833	      0.56920383	     -0.08302783	    -21.62146764	     12.86351426	     -1.91170252	     -2.95221119	      4.68777453	      3.73924897	     -0.00204272	      3.79093026	     -6.34384417	     -2.41676129
      0.66250000	      2.18563326	      8.46020854	     -1.67591569	     -0.74751690	      1.05092507	      0.32234853	     22.10308306	     -4.56630186	    -11.32345622	     -0.37437997	      9.67433370	      0.23550132	     -0.11558677	    -21.85415305	     12.70093665	     -1.93365006	     -3.25115963	      4.22530435	      3.63906018	     -0.02533029	      3.77617325	     -6.16651983	     -2.59609704
      0.66666667	      2.18255829	      8.42152322	     -1.60486640	     -0.74156660	      1.05082477	      0.32247259	     21.98227997	     -4.53231955	    -11.17611436	     -0.74087868	      9.62864988	      0.19206524	     -0.12055676	    -21.96974180	     12.61041101	     -1.91357712	     -3.66453580	      4.15330803	      3.61991031	     -0.02627466	      3.83270914	     -6.11730161	     -2.61718456
      0.67083333	      2.25388209	      8.25179265	     -1.56230065	     -0.73529529	      1.05088758	      0.32273577	     21.67365310	     -4.33990020	    -10.77274357	     -0.94660594	      9.48563706	     -0.27449612	     -0.15159326	    -22.19354167	     12.37869334	     -1.99675758	     -3.99843553	      3.63574708	      3.60824875	     -0.02497330	      3.82566124	     -5.89730953	     -2.78198898
      0.67500000	      2.39251316	      8.16871963	     -1.56921634	     -0.72939873	      1.05098174	      0.32314989	     21.33466987	     -4.21888429	    -10.19987452	     -1.16975865	      9.15836903	     -1.16457540	     -0.22743990	    -22.43072486	     12.24360401	     -2.12720722	     -4.42716260	      3.46953714	      3.68968407	      0.04317505	      3.67561237	     -5.83548807	     -2.96531908
      0.67916667	      2.37429904	      8.11297372	     -1.47798117	     -0.72334526	      1.05094555	      0.32329833	     21.18456618	     -4.17350036	    -10.07901077	     -1.48328411	      9.08491293	     -1.16755244	     -0.23101149	    -22.49674814	     12.12075779	     -2.13713404	     -4.89404525	      3.35683711	      3.68552676	      0.04791253	      3.75953274	     -5.76220705	     -2.97457862
      0.68333333	      2.41134896	      7.92127620	     -1.44952116	     -0.71694074	      1.05102146	      0.32358626	     20.90390758	     -3.95627243	     -9.88809856	     -1.66503274	      8.63311958	     -1.48250893	     -0.25836970	    -22.64242192	     11.86919717	     -2.35327134	     -5.29725668	      2.77270538	      3.80181939	      0.09523582	      3.85219480	     -5.47384773	     -3.08490215
      0.68750000	      2.39474595	      7.76363116	     -1.33065498	     -0.71058993	      1.05110541	      0.32384338	     20.64787970	     -3.79623909	     -9.65765003	     -1.80269075	      8.31861923	     -1.66229880	     -0.27250470	    -22.70206242	     11.60990007	     -2.46009298	     -5.78563402	      2.48025131	      3.84054658	      0.13703295	      3.86746121	     -5.36538684	     -3.13743946
      0.69166667	      2.42887877	      7.61384755	     -1.27080694	     -0.70431147	      1.05123497	      0.32411735	     20.36388345	     -3.63609448	     -9.47886496	     -1.95321157	      7.79750891	     -1.97941457	     -0.28996363	    -22.79214573	     11.38355745	     -2.66630113	     -6.28307876	      2.01951652	      3.94071715	      0.20372785	      3.93819193	     -5.12808765	     -3.23130284
      0.69583333	      2.50335530	      7.45748536	     -1.24596452	     -0.69809047	      1.05143232	      0.32446257	     20.03834194	     -3.45831515	     -9.25629355	     -2.09417593	      7.20903789	     -2.42116657	     -0.30696545	    -22.90751352	     11.15886849	     -2.86869026	     -6.79430982	      1.58562529	      4.08975441	      0.32216073	      3.97678145	     -4.91022047	     -3.33918948
      0.70000000	      2.48456725	      7.38345340	     -1.12649871	     -0.69201451	      1.05156820	      0.32466767	     19.82436222	     -3.40248490	     -9.12414854	     -2.27334090	      7.07009711	     -2.41851891	     -0.30772657	    -22.87933516	     10.98593110	     -2.91934518	     -7.42535631	      1.45266267	      4.07312252	      0.34007657	      4.02689514	     -4.83941417	     -3.34825904
      0.70416667	      2.52439759	      7.12238172	     -1.06990811	     -0.68541588	      1.05182179	      0.32498006	     19.48126265	     -3.12344347	     -9.09619676	     -2.33026442	      6.13865091	     -2.75153868	     -0.31798629	    -22.94948219	     10.63184823	     -3.25476341	     -7.95170875	      0.71764424	      4.27188351	      0.45757003	      4.12632550	     -4.49358833	     -3.46950238
      0.70833333	      2.56231123	      6.92347418	     -0.98518964	     -0.67904327	      1.05209753	      0.32530419	     19.15129470	     -2.91773568	     -8.97382471	     -2.39937107	      5.46488402	     -3.09125438	     -0.31870235	    -22.96866129	     10.32201568	     -3.52578170	     -8.57441757	      0.20467237	      4.43011013	      0.61044663	      4.14890708	     -4.26829843	     -3.56546693
      0.71250000	      2.57846536	      6.72776820	     -0.89745308	     -0.67265592	      1.05236721	      0.32560642	     18.85103007	     -2.72004556	     -8.89920202	     -2.48378321	      4.84063474	     -3.34245315	     -0.31441579	    -22.94348633	     10.01385892	     -3.78615562	     -9.23663064	     -0.29024711	      4.56262253	      0.76706166	      4.19846295	     -4.04333150	     -3.64314207
      0.71666667	      2.60136127	      6.53194476	     -0.81485859	     -0.66629168	      1.05265982	      0.32589960	     18.55753818	     -2.52582985	     -8.87065063	     -2.59217164	      4.19400861	     -3.56353112	     -0.30558370	    -22.90309555	      9.70353530	     -4.05798020	     -9.92764193	     -0.84396555	      4.70670205	      0.94403536	      4.25646974	     -3.80169874	     -3.71788985
      0.72083333	      2.62156556	      6.32812936	     -0.72515729	     -0.65991650	      1.05298037	      0.32616783	     18.27167149	     -2.32884118	     -8.88079125	     -2.71324412	      3.56457207	     -3.75177701	     -0.29304843	    -22.83554542	      9.37952377	     -4.32689968	    -10.66160319	     -1.40075969	      4.83167574	      1.13194584	      4.31858347	     -3.54881346	     -3.78725658
      0.72500000	      2.63871957	      6.12214310	     -0.64057214	     -0.65354303	      1.05331025	      0.32644675	     18.00084092	     -2.13192480	     -8.93288274	     -2.85963214	      2.95262067	     -3.89295466	     -0.27858511	    -22.74111957	      9.04894648	     -4.62098487	    -11.43173123	     -1.98833192	      4.95510905	      1.31680568	      4.38019862	     -3.29875220	     -3.84913299
      0.72916667	      2.65679273	      5.89831340	     -0.55172813	     -0.64714296	      1.05366882	      0.32671874	     17.72893928	     -1.91977694	     -8.99970073	     -3.01118171	      2.32665658	     -4.03387254	     -0.25876393	    -22.62483595	      8.69099982	     -4.92059623	    -12.23700892	     -2.63941875	      5.08860565	      1.53800538	      4.44595947	     -3.01839737	     -3.91333063
      0.73333333	      2.76795801	      5.67522379	     -0.51724499	     -0.64096693	      1.05412479	      0.32726547	     17.34366494	     -1.67340688	     -8.68849653	     -3.09319648	      1.50361282	     -4.90454656	     -0.07993458	    -22.56296028	      8.32328650	     -5.30460052	    -13.10337034	     -3.29585726	      5.23999983	      3.06902591	      4.30294308	     -2.79723673	     -4.04595658
      0.73750000	      2.74413427	      5.43429637	     -0.42178182	     -0.63449492	      1.05445935	      0.32744870	     17.15292920	     -1.46153656	     -9.00606501	     -3.34303480	      1.07988890	     -4.68317274	     -0.05520167	    -22.35680383	      7.94251708	     -5.61469954	    -13.99103091	     -3.96592490	      5.37469870	      3.27987369	      4.50035352	     -2.47103814	     -4.05480922
      0.74166667	      2.70249188	      5.20726209	     -0.29711937	     -0.62816484	      1.05479297	      0.32772197	     16.96874448	     -1.26298471	     -9.15039938	     -3.56173390	      0.73490116	     -4.56577872	     -0.04101842	    -22.08576844	      7.54658398	     -5.87683186	    -14.97007970	     -4.49064515	      5.40435448	      3.40391739	      4.48852764	     -2.25699448	     -4.06943276
      0.74583333	      2.75429133	      4.96896487	     -0.24005242	     -0.62187307	      1.05522824	      0.32789370	     16.71660423	     -1.06158122	     -9.36892311	     -3.81609755	      0.09091620	     -4.46332151	     -0.00008732	    -21.90939109	      7.17747779	     -6.11468656	    -15.90464975	     -5.44735072	      5.50917255	      3.76512566	      4.66796575	     -1.86509689	     -4.10405634
      0.75000000	      2.78161573	      4.72762414	     -0.21853483	     -0.61566436	      1.05560689	      0.32821282	     16.52812465	     -0.84076816	     -9.65504636	     -4.15086592	     -0.30007382	     -4.44416213	      0.02548315	    -21.66163561	      6.79919737	     -6.48633253	    -16.93331592	     -6.14812952	      5.55862829	      3.99443402	      4.71173754	     -1.56337962	     -4.13380628
      0.75416667	      2.75765549	      4.48697888	     -0.11010175	     -0.60948520	      1.05597859	      0.32857766	     16.34401095	     -0.62718783	     -9.74544156	     -4.40244597	     -0.54730116	     -4.36432684	      0.03826017	    -21.31801487	      6.36767686	     -6.74590678	    -18.05693492	     -6.63936696	      5.56443068	      4.10081293	      4.64322335	     -1.35783440	     -4.14807781
      0.75833333	      2.81564277	      4.21076348	     -0.11462588	     -0.60325130	      1.05640363	      0.32885601	     16.12899873	     -0.37848529	    -10.07548752	     -4.74376131	     -1.08532490	     -4.31912687	      0.06337959	    -21.06913194	      5.95718574	     -7.07923750	    -19.10967760	     -7.71757321	      5.68061305	      4.34028930	      4.82327768	     -0.90203764	     -4.18115588
      0.76250000	      2.84661837	      3.94277071	     -0.06964961	     -0.59713817	      1.05682250	      0.32922115	     15.92457686	     -0.13839998	    -10.27598703	     -5.05782668	     -1.44594538	     -4.25658033	      0.09486237	    -20.74380412	      5.51602298	     -7.35869704	    -20.26218810	     -8.58493901	      5.66825303	      4.61070394	      4.83609078	     -0.57262922	     -4.19128512
      0.76666667	      2.85369909	      3.67986280	     -0.01441275	     -0.59113926	      1.05720492	      0.32965420	     15.74593091	      0.10192249	    -10.39831282	     -5.36608705	     -1.63314502	     -4.17488716	      0.11175813	    -20.34813745	      5.06280269	     -7.62648383	    -21.50492799	     -9.13480039	      5.64338584	      4.74487531	      4.74847036	     -0.34067530	     -4.19900768
